<mxfile host="65bd71144e">
    <diagram id="YtEZjVRWV417ryNRpZMQ" name="Page-1">
        <mxGraphModel dx="638" dy="522" grid="1" gridSize="10" guides="1" tooltips="1" connect="1" arrows="1" fold="1" page="1" pageScale="1" pageWidth="827" pageHeight="1169" math="0" shadow="0">
            <root>
                <mxCell id="0"/>
                <mxCell id="1" parent="0"/>
                <mxCell id="4" style="edgeStyle=none;html=1;exitX=1;exitY=0.5;exitDx=0;exitDy=0;" parent="1" source="2" target="3" edge="1">
                    <mxGeometry relative="1" as="geometry"/>
                </mxCell>
                <mxCell id="2" value="producer" style="ellipse;whiteSpace=wrap;html=1;aspect=fixed;" parent="1" vertex="1">
                    <mxGeometry x="10" y="110" width="80" height="80" as="geometry"/>
                </mxCell>
                <mxCell id="8" style="edgeStyle=none;html=1;exitX=1;exitY=0.5;exitDx=0;exitDy=0;entryX=0;entryY=0.5;entryDx=0;entryDy=0;" parent="1" source="3" target="7" edge="1">
                    <mxGeometry relative="1" as="geometry"/>
                </mxCell>
                <mxCell id="9" style="edgeStyle=none;html=1;exitX=1;exitY=0.5;exitDx=0;exitDy=0;entryX=0;entryY=0.5;entryDx=0;entryDy=0;" parent="1" source="3" target="6" edge="1">
                    <mxGeometry relative="1" as="geometry"/>
                </mxCell>
                <mxCell id="3" value="exchange name: ONLINE_SHOPPING&lt;br&gt;exchange type: direct" style="rounded=1;whiteSpace=wrap;html=1;" parent="1" vertex="1">
                    <mxGeometry x="150" y="120" width="250" height="60" as="geometry"/>
                </mxCell>
                <mxCell id="14" style="edgeStyle=none;html=1;exitX=1;exitY=0.5;exitDx=0;exitDy=0;entryX=0;entryY=0.5;entryDx=0;entryDy=0;" parent="1" source="6" target="12" edge="1">
                    <mxGeometry relative="1" as="geometry"/>
                </mxCell>
                <mxCell id="6" value="ORDER_QUEUE" style="rounded=1;whiteSpace=wrap;html=1;" parent="1" vertex="1">
                    <mxGeometry x="570" y="30" width="120" height="60" as="geometry"/>
                </mxCell>
                <mxCell id="15" style="edgeStyle=none;html=1;exitX=1;exitY=0.5;exitDx=0;exitDy=0;entryX=0;entryY=0.5;entryDx=0;entryDy=0;" parent="1" source="7" target="13" edge="1">
                    <mxGeometry relative="1" as="geometry"/>
                </mxCell>
                <mxCell id="7" value="USER_QUEUE" style="rounded=1;whiteSpace=wrap;html=1;" parent="1" vertex="1">
                    <mxGeometry x="570" y="200" width="120" height="60" as="geometry"/>
                </mxCell>
                <mxCell id="10" value="ORDER_SERVICE" style="text;html=1;align=center;verticalAlign=middle;resizable=0;points=[];autosize=1;strokeColor=none;fillColor=none;rotation=-30;" parent="1" vertex="1">
                    <mxGeometry x="409" y="80" width="130" height="30" as="geometry"/>
                </mxCell>
                <mxCell id="11" value="USER_SERVICE" style="text;html=1;align=center;verticalAlign=middle;resizable=0;points=[];autosize=1;strokeColor=none;fillColor=none;rotation=25;" parent="1" vertex="1">
                    <mxGeometry x="419" y="190" width="120" height="30" as="geometry"/>
                </mxCell>
                <mxCell id="12" value="consumer O" style="ellipse;whiteSpace=wrap;html=1;aspect=fixed;" parent="1" vertex="1">
                    <mxGeometry x="740" y="20" width="80" height="80" as="geometry"/>
                </mxCell>
                <mxCell id="13" value="consumer U" style="ellipse;whiteSpace=wrap;html=1;aspect=fixed;" parent="1" vertex="1">
                    <mxGeometry x="740" y="190" width="80" height="80" as="geometry"/>
                </mxCell>
                <mxCell id="16" value="PublishMessage - publish data to queue.&lt;br&gt;&lt;br&gt;PublishMessage(CASE, [BINDING_KEY])" style="rounded=1;whiteSpace=wrap;html=1;" parent="1" vertex="1">
                    <mxGeometry x="10" y="320" width="240" height="80" as="geometry"/>
                </mxCell>
                <mxCell id="18" value="&amp;nbsp; Order Service&lt;br&gt;&lt;br&gt;&amp;nbsp; PublishMessage(CREATE_ORDER, USER_SERVICE)" style="rounded=0;whiteSpace=wrap;html=1;align=left;" parent="1" vertex="1">
                    <mxGeometry x="10" y="440" width="310" height="60" as="geometry"/>
                </mxCell>
                <mxCell id="19" value="&amp;nbsp; Product Service&lt;br&gt;&lt;br&gt;&amp;nbsp; PublishMessage(ADD_TO_WISHLIST,&amp;nbsp;USER_SERVICE)&lt;br&gt;&lt;br&gt;&amp;nbsp; PublishMessage(REMOVE_FROM_WISHLIST,&amp;nbsp;USER_SERVICE)&lt;br&gt;&lt;br&gt;&amp;nbsp; PublishMessage(ADD_TO_CART,&amp;nbsp;USER_SERVICE)&lt;br&gt;&lt;br&gt;&amp;nbsp; PublishMessage(REMOVE_FROM_CART,&amp;nbsp;USER_SERVICE, ORDER_SERVICE)&lt;br&gt;&lt;br&gt;&amp;nbsp; PublishMessage(CREATE_ORDER,&amp;nbsp;USER_SERVICE, ORDER_SERVICE)" style="rounded=0;whiteSpace=wrap;html=1;align=left;" parent="1" vertex="1">
                    <mxGeometry x="340" y="440" width="470" height="180" as="geometry"/>
                </mxCell>
                <mxCell id="20" value="&lt;blockquote style=&quot;border: none; margin: 0px 0px 0px 40px; padding: 0px;&quot;&gt;USER SERVICE CASE&lt;/blockquote&gt;&lt;br style=&quot;&quot;&gt;&lt;span style=&quot;&quot;&gt;&#9;&lt;/span&gt;&lt;span style=&quot;&quot;&gt;&#9;&lt;/span&gt;&lt;span style=&quot;&quot;&gt;&lt;span style=&quot;white-space: pre;&quot;&gt;&#9;&lt;/span&gt;&lt;span style=&quot;white-space: pre;&quot;&gt;&#9;&lt;/span&gt;ADD_TO_CART&lt;/span&gt;&lt;br style=&quot;&quot;&gt;&lt;span style=&quot;&quot;&gt;&#9;&lt;/span&gt;&lt;span style=&quot;&quot;&gt;&#9;&lt;/span&gt;&lt;span style=&quot;&quot;&gt;&lt;span style=&quot;white-space: pre;&quot;&gt;&#9;&lt;/span&gt;&lt;span style=&quot;white-space: pre;&quot;&gt;&#9;&lt;/span&gt;REMOVE_FROM_CART&lt;br&gt;&lt;span style=&quot;white-space: pre;&quot;&gt;&#9;&lt;/span&gt;&lt;span style=&quot;white-space: pre;&quot;&gt;&#9;&lt;/span&gt;ADD_TO_WISHLIST&lt;br&gt;&lt;span style=&quot;white-space: pre;&quot;&gt;&#9;&lt;/span&gt;&lt;span style=&quot;white-space: pre;&quot;&gt;&#9;&lt;/span&gt;REMOVE_FROM_WISHLIST&lt;br&gt;&lt;span style=&quot;white-space: pre;&quot;&gt;&#9;&lt;/span&gt;&lt;span style=&quot;white-space: pre;&quot;&gt;&#9;&lt;/span&gt;CREATE_ORDER&lt;br&gt;&lt;/span&gt;" style="rounded=1;whiteSpace=wrap;html=1;align=left;" parent="1" vertex="1">
                    <mxGeometry x="320" y="680" width="280" height="120" as="geometry"/>
                </mxCell>
                <mxCell id="21" value="&lt;blockquote style=&quot;margin: 0 0 0 40px; border: none; padding: 0px;&quot;&gt;ORDER SERVICE CASE&lt;/blockquote&gt;&lt;br&gt;&lt;span style=&quot;white-space: pre;&quot;&gt;&#9;&lt;/span&gt;&lt;span style=&quot;white-space: pre;&quot;&gt;&#9;&lt;/span&gt;ADD_TO_CART&lt;br&gt;&lt;span style=&quot;white-space: pre;&quot;&gt;&#9;&lt;/span&gt;&lt;span style=&quot;white-space: pre;&quot;&gt;&#9;&lt;/span&gt;REMOVE_FROM_CART" style="rounded=1;whiteSpace=wrap;html=1;align=left;" parent="1" vertex="1">
                    <mxGeometry x="10" y="680" width="250" height="90" as="geometry"/>
                </mxCell>
                <mxCell id="22" value="---------------------------------------------------------------- PUBLISH AND BINDINGS" style="text;html=1;align=center;verticalAlign=middle;resizable=0;points=[];autosize=1;strokeColor=none;fillColor=none;" parent="1" vertex="1">
                    <mxGeometry x="5" y="285" width="420" height="30" as="geometry"/>
                </mxCell>
                <mxCell id="23" value="---------------------------------------------------------------- CASES AS PER SERVICE" style="text;html=1;align=center;verticalAlign=middle;resizable=0;points=[];autosize=1;strokeColor=none;fillColor=none;" parent="1" vertex="1">
                    <mxGeometry x="5" y="645" width="430" height="30" as="geometry"/>
                </mxCell>
            </root>
        </mxGraphModel>
    </diagram>
</mxfile>